<svg width="20" height="21" viewBox="0 0 20 21" fill="none" xmlns="http://www.w3.org/2000/svg">
<g filter="url(#filter0_d_1_16)">
<path d="M11.139 2.54623C11.6267 2.22106 11.8706 2.05847 12.1336 2.03941C12.2476 2.03115 12.3622 2.0425 12.4724 2.07295C12.7266 2.14322 12.9338 2.35048 13.3483 2.765L14.235 3.65166C14.6495 4.06619 14.8568 4.27345 14.927 4.52762C14.9575 4.63778 14.9688 4.75235 14.9606 4.86635C14.9415 5.12937 14.7789 5.37325 14.4538 5.86102L13.7577 6.90505C13.2024 7.73805 12.8156 8.67179 12.6193 9.6535L12.5079 10.2106C12.4254 10.6231 11.9474 10.8162 11.6015 10.5767C9.57821 9.17594 7.82406 7.42179 6.4233 5.39846C6.18385 5.05259 6.37694 4.57461 6.78944 4.49211L7.3465 4.3807C8.32821 4.18436 9.26195 3.79759 10.095 3.24225L11.139 2.54623Z" fill="white" fill-opacity="0.89" stroke="white" stroke-opacity="0.89" stroke-width="2"/>
<path d="M5.91667 11.0833L8.54167 8.45834" stroke="white" stroke-opacity="0.89" stroke-width="2" stroke-linecap="round"/>
</g>
<defs>
<filter id="filter0_d_1_16" x="-1" y="0" width="22" height="22" filterUnits="userSpaceOnUse" color-interpolation-filters="sRGB">
<feFlood flood-opacity="0" result="BackgroundImageFix"/>
<feColorMatrix in="SourceAlpha" type="matrix" values="0 0 0 0 0 0 0 0 0 0 0 0 0 0 0 0 0 0 127 0" result="hardAlpha"/>
<feOffset dy="4"/>
<feGaussianBlur stdDeviation="2"/>
<feComposite in2="hardAlpha" operator="out"/>
<feColorMatrix type="matrix" values="0 0 0 0 1 0 0 0 0 1 0 0 0 0 1 0 0 0 0.25 0"/>
<feBlend mode="normal" in2="BackgroundImageFix" result="effect1_dropShadow_1_16"/>
<feBlend mode="normal" in="SourceGraphic" in2="effect1_dropShadow_1_16" result="shape"/>
</filter>
</defs>
</svg>
