<svg width="22" height="25" viewBox="0 0 22 25" fill="none" xmlns="http://www.w3.org/2000/svg">
<g filter="url(#filter0_d_1_20)">
<path fill-rule="evenodd" clip-rule="evenodd" d="M9.10601 10.4798L8.35876 10.2307C6.00555 9.44631 4.82895 9.05411 4.82895 8.33335C4.82895 7.61259 6.00555 7.22039 8.35877 6.43598L13.8719 4.59826C15.5277 4.04633 16.3556 3.77036 16.7926 4.20738C17.2297 4.6444 16.9537 5.47229 16.4018 7.12808L14.564 12.6413C13.7796 14.9945 13.3874 16.1711 12.6667 16.1711C11.9459 16.1711 11.5537 14.9945 10.7693 12.6412L10.5202 11.894L14.2071 8.20712C14.5976 7.8166 14.5976 7.18343 14.2071 6.79291C13.8166 6.40238 13.1834 6.40238 12.7929 6.79291L9.10601 10.4798Z" fill="white" fill-opacity="0.92"/>
</g>
<defs>
<filter id="filter0_d_1_20" x="-3" y="0" width="28" height="28" filterUnits="userSpaceOnUse" color-interpolation-filters="sRGB">
<feFlood flood-opacity="0" result="BackgroundImageFix"/>
<feColorMatrix in="SourceAlpha" type="matrix" values="0 0 0 0 0 0 0 0 0 0 0 0 0 0 0 0 0 0 127 0" result="hardAlpha"/>
<feOffset dy="4"/>
<feGaussianBlur stdDeviation="2"/>
<feComposite in2="hardAlpha" operator="out"/>
<feColorMatrix type="matrix" values="0 0 0 0 1 0 0 0 0 1 0 0 0 0 1 0 0 0 0.25 0"/>
<feBlend mode="normal" in2="BackgroundImageFix" result="effect1_dropShadow_1_20"/>
<feBlend mode="normal" in="SourceGraphic" in2="effect1_dropShadow_1_20" result="shape"/>
</filter>
</defs>
</svg>
