<svg width="26" height="30" viewBox="0 0 26 30" fill="none" xmlns="http://www.w3.org/2000/svg">
<g filter="url(#filter0_d_1_32)">
<path d="M7 12H19C20.6569 12 22 10.6569 22 9C22 7.34315 20.6569 6 19 6C18.36 6 17.826 5.53873 17.5639 4.95481C16.7822 3.21307 15.0328 2 13 2C10.9672 2 9.21776 3.21307 8.43606 4.95481C8.17399 5.53873 7.64004 6 7 6C5.34315 6 4 7.34315 4 9C4 10.6569 5.34315 12 7 12Z" fill="white" fill-opacity="0.76"/>
<path fill-rule="evenodd" clip-rule="evenodd" d="M11.2352 14L10.7729 14.786C9.98586 16.124 9.59233 16.793 9.88032 17.2965C10.1683 17.8 10.9454 17.8 12.4996 17.8C12.7355 17.8 12.8535 17.8 12.9267 17.8732C13 17.9464 13 18.0643 13 18.3V20.1638C13 20.9032 13 21.2729 13.1843 21.3231C13.3686 21.3733 13.556 21.0547 13.9309 20.4174L15.227 18.214C16.014 16.876 16.4076 16.207 16.1196 15.7035C15.8316 15.2 15.0545 15.2 13.5003 15.2C13.2644 15.2 13.1464 15.2 13.0732 15.1268C13 15.0536 13 14.9357 13 14.7V14H11.2352Z" fill="white" fill-opacity="0.76"/>
</g>
<defs>
<filter id="filter0_d_1_32" x="-3" y="0" width="32" height="32" filterUnits="userSpaceOnUse" color-interpolation-filters="sRGB">
<feFlood flood-opacity="0" result="BackgroundImageFix"/>
<feColorMatrix in="SourceAlpha" type="matrix" values="0 0 0 0 0 0 0 0 0 0 0 0 0 0 0 0 0 0 127 0" result="hardAlpha"/>
<feOffset dy="4"/>
<feGaussianBlur stdDeviation="2"/>
<feComposite in2="hardAlpha" operator="out"/>
<feColorMatrix type="matrix" values="0 0 0 0 1 0 0 0 0 1 0 0 0 0 1 0 0 0 0.25 0"/>
<feBlend mode="normal" in2="BackgroundImageFix" result="effect1_dropShadow_1_32"/>
<feBlend mode="normal" in="SourceGraphic" in2="effect1_dropShadow_1_32" result="shape"/>
</filter>
</defs>
</svg>
